<mxfile host="app.diagrams.net" modified="2023-11-15T10:04:59.224Z" agent="Mozilla/5.0 (Macintosh; Intel Mac OS X 10_15_7) AppleWebKit/537.36 (KHTML, like Gecko) Chrome/119.0.0.0 Safari/537.36" etag="5U-7-P3XSfZ0GswTlAIo" version="22.1.0" type="github">
  <diagram name="第 1 页" id="jNjTmyWnIg0mmmp1Ju3j">
    <mxGraphModel dx="1834" dy="1640" grid="0" gridSize="10" guides="1" tooltips="1" connect="1" arrows="1" fold="1" page="0" pageScale="1" pageWidth="200000" pageHeight="200000" math="0" shadow="0">
      <root>
        <mxCell id="0" />
        <mxCell id="1" parent="0" />
        <mxCell id="i0Iv2Q9IE5e70W4y3djE-3" value="" style="edgeStyle=none;curved=1;rounded=0;orthogonalLoop=1;jettySize=auto;html=1;fontSize=12;startSize=8;endSize=8;" edge="1" parent="1" source="i0Iv2Q9IE5e70W4y3djE-1" target="i0Iv2Q9IE5e70W4y3djE-2">
          <mxGeometry relative="1" as="geometry" />
        </mxCell>
        <mxCell id="i0Iv2Q9IE5e70W4y3djE-1" value="借币" style="rounded=1;whiteSpace=wrap;html=1;fontSize=16;" vertex="1" parent="1">
          <mxGeometry x="-310" y="-176" width="120" height="60" as="geometry" />
        </mxCell>
        <mxCell id="i0Iv2Q9IE5e70W4y3djE-5" value="" style="edgeStyle=none;curved=1;rounded=0;orthogonalLoop=1;jettySize=auto;html=1;fontSize=12;startSize=8;endSize=8;" edge="1" parent="1" source="i0Iv2Q9IE5e70W4y3djE-2" target="i0Iv2Q9IE5e70W4y3djE-4">
          <mxGeometry relative="1" as="geometry" />
        </mxCell>
        <mxCell id="i0Iv2Q9IE5e70W4y3djE-2" value="判断限额、状态等" style="whiteSpace=wrap;html=1;fontSize=16;rounded=1;" vertex="1" parent="1">
          <mxGeometry x="-310" y="4" width="120" height="60" as="geometry" />
        </mxCell>
        <mxCell id="i0Iv2Q9IE5e70W4y3djE-7" value="" style="edgeStyle=none;curved=1;rounded=0;orthogonalLoop=1;jettySize=auto;html=1;fontSize=12;startSize=8;endSize=8;" edge="1" parent="1" source="i0Iv2Q9IE5e70W4y3djE-4" target="i0Iv2Q9IE5e70W4y3djE-6">
          <mxGeometry relative="1" as="geometry" />
        </mxCell>
        <mxCell id="i0Iv2Q9IE5e70W4y3djE-4" value="计算抵押数量" style="whiteSpace=wrap;html=1;fontSize=16;rounded=1;" vertex="1" parent="1">
          <mxGeometry x="-310" y="184" width="120" height="60" as="geometry" />
        </mxCell>
        <mxCell id="i0Iv2Q9IE5e70W4y3djE-9" value="" style="edgeStyle=none;curved=1;rounded=0;orthogonalLoop=1;jettySize=auto;html=1;fontSize=12;startSize=8;endSize=8;" edge="1" parent="1" source="i0Iv2Q9IE5e70W4y3djE-6" target="i0Iv2Q9IE5e70W4y3djE-8">
          <mxGeometry relative="1" as="geometry" />
        </mxCell>
        <mxCell id="i0Iv2Q9IE5e70W4y3djE-6" value="保存pledge_order" style="whiteSpace=wrap;html=1;fontSize=16;rounded=1;" vertex="1" parent="1">
          <mxGeometry x="-310" y="364" width="120" height="60" as="geometry" />
        </mxCell>
        <mxCell id="i0Iv2Q9IE5e70W4y3djE-11" value="" style="edgeStyle=none;curved=1;rounded=0;orthogonalLoop=1;jettySize=auto;html=1;fontSize=12;startSize=8;endSize=8;" edge="1" parent="1" source="i0Iv2Q9IE5e70W4y3djE-8" target="i0Iv2Q9IE5e70W4y3djE-10">
          <mxGeometry relative="1" as="geometry" />
        </mxCell>
        <mxCell id="i0Iv2Q9IE5e70W4y3djE-8" value="保存 质押兑换表pledge_swap" style="whiteSpace=wrap;html=1;fontSize=16;rounded=1;" vertex="1" parent="1">
          <mxGeometry x="-310" y="544" width="120" height="60" as="geometry" />
        </mxCell>
        <mxCell id="i0Iv2Q9IE5e70W4y3djE-13" value="" style="edgeStyle=none;curved=1;rounded=0;orthogonalLoop=1;jettySize=auto;html=1;fontSize=12;startSize=8;endSize=8;" edge="1" parent="1" source="i0Iv2Q9IE5e70W4y3djE-10" target="i0Iv2Q9IE5e70W4y3djE-12">
          <mxGeometry relative="1" as="geometry" />
        </mxCell>
        <mxCell id="i0Iv2Q9IE5e70W4y3djE-10" value="初始化 pledge_asset" style="whiteSpace=wrap;html=1;fontSize=16;rounded=1;" vertex="1" parent="1">
          <mxGeometry x="-310" y="724" width="120" height="60" as="geometry" />
        </mxCell>
        <mxCell id="i0Iv2Q9IE5e70W4y3djE-15" value="" style="edgeStyle=none;curved=1;rounded=0;orthogonalLoop=1;jettySize=auto;html=1;fontSize=12;startSize=8;endSize=8;" edge="1" parent="1" source="i0Iv2Q9IE5e70W4y3djE-12" target="i0Iv2Q9IE5e70W4y3djE-14">
          <mxGeometry relative="1" as="geometry" />
        </mxCell>
        <mxCell id="i0Iv2Q9IE5e70W4y3djE-12" value="增加质押金pledge_asset" style="whiteSpace=wrap;html=1;fontSize=16;rounded=1;" vertex="1" parent="1">
          <mxGeometry x="-310" y="904" width="120" height="60" as="geometry" />
        </mxCell>
        <mxCell id="i0Iv2Q9IE5e70W4y3djE-17" value="" style="edgeStyle=none;curved=1;rounded=0;orthogonalLoop=1;jettySize=auto;html=1;fontSize=12;startSize=8;endSize=8;" edge="1" parent="1" source="i0Iv2Q9IE5e70W4y3djE-14" target="i0Iv2Q9IE5e70W4y3djE-16">
          <mxGeometry relative="1" as="geometry" />
        </mxCell>
        <mxCell id="i0Iv2Q9IE5e70W4y3djE-14" value="用户资产冻结&lt;br&gt;记录流水&lt;br&gt;用户资金是直接直接扣减" style="whiteSpace=wrap;html=1;fontSize=16;rounded=1;" vertex="1" parent="1">
          <mxGeometry x="-310" y="1084" width="120" height="60" as="geometry" />
        </mxCell>
        <mxCell id="i0Iv2Q9IE5e70W4y3djE-19" value="" style="edgeStyle=none;curved=1;rounded=0;orthogonalLoop=1;jettySize=auto;html=1;fontSize=12;startSize=8;endSize=8;" edge="1" parent="1" source="i0Iv2Q9IE5e70W4y3djE-16" target="i0Iv2Q9IE5e70W4y3djE-18">
          <mxGeometry relative="1" as="geometry" />
        </mxCell>
        <mxCell id="i0Iv2Q9IE5e70W4y3djE-16" value="发送mq" style="whiteSpace=wrap;html=1;fontSize=16;rounded=1;" vertex="1" parent="1">
          <mxGeometry x="-310" y="1264" width="120" height="60" as="geometry" />
        </mxCell>
        <mxCell id="i0Iv2Q9IE5e70W4y3djE-21" value="" style="edgeStyle=none;curved=1;rounded=0;orthogonalLoop=1;jettySize=auto;html=1;fontSize=12;startSize=8;endSize=8;" edge="1" parent="1" source="i0Iv2Q9IE5e70W4y3djE-18" target="i0Iv2Q9IE5e70W4y3djE-20">
          <mxGeometry relative="1" as="geometry" />
        </mxCell>
        <mxCell id="i0Iv2Q9IE5e70W4y3djE-18" value="质押处理" style="whiteSpace=wrap;html=1;fontSize=16;rounded=1;" vertex="1" parent="1">
          <mxGeometry x="-310" y="1444" width="120" height="60" as="geometry" />
        </mxCell>
        <mxCell id="i0Iv2Q9IE5e70W4y3djE-23" value="" style="edgeStyle=none;curved=1;rounded=0;orthogonalLoop=1;jettySize=auto;html=1;fontSize=12;startSize=8;endSize=8;" edge="1" parent="1" source="i0Iv2Q9IE5e70W4y3djE-20" target="i0Iv2Q9IE5e70W4y3djE-22">
          <mxGeometry relative="1" as="geometry" />
        </mxCell>
        <mxCell id="i0Iv2Q9IE5e70W4y3djE-28" value="" style="edgeStyle=none;curved=1;rounded=0;orthogonalLoop=1;jettySize=auto;html=1;fontSize=12;startSize=8;endSize=8;" edge="1" parent="1" source="i0Iv2Q9IE5e70W4y3djE-20" target="i0Iv2Q9IE5e70W4y3djE-27">
          <mxGeometry relative="1" as="geometry" />
        </mxCell>
        <mxCell id="i0Iv2Q9IE5e70W4y3djE-20" value="专项账户金额是否足够" style="rhombus;whiteSpace=wrap;html=1;fontSize=16;rounded=1;" vertex="1" parent="1">
          <mxGeometry x="-290" y="1614" width="80" height="80" as="geometry" />
        </mxCell>
        <mxCell id="i0Iv2Q9IE5e70W4y3djE-25" value="" style="edgeStyle=none;curved=1;rounded=0;orthogonalLoop=1;jettySize=auto;html=1;fontSize=12;startSize=8;endSize=8;" edge="1" parent="1" source="i0Iv2Q9IE5e70W4y3djE-22" target="i0Iv2Q9IE5e70W4y3djE-24">
          <mxGeometry relative="1" as="geometry" />
        </mxCell>
        <mxCell id="i0Iv2Q9IE5e70W4y3djE-22" value="保存pledge_facility_apply&lt;br&gt;更新pledge_swap的状态是余额不足" style="whiteSpace=wrap;html=1;fontSize=16;rounded=1;" vertex="1" parent="1">
          <mxGeometry x="-107" y="1601.5" width="165" height="105" as="geometry" />
        </mxCell>
        <mxCell id="i0Iv2Q9IE5e70W4y3djE-24" value="结束" style="whiteSpace=wrap;html=1;fontSize=16;rounded=1;" vertex="1" parent="1">
          <mxGeometry x="-84.5" y="1399" width="120" height="60" as="geometry" />
        </mxCell>
        <mxCell id="i0Iv2Q9IE5e70W4y3djE-26" value="否" style="text;html=1;align=center;verticalAlign=middle;resizable=0;points=[];autosize=1;strokeColor=none;fillColor=none;fontSize=16;" vertex="1" parent="1">
          <mxGeometry x="-189" y="1620" width="34" height="31" as="geometry" />
        </mxCell>
        <mxCell id="i0Iv2Q9IE5e70W4y3djE-31" value="" style="edgeStyle=none;curved=1;rounded=0;orthogonalLoop=1;jettySize=auto;html=1;fontSize=12;startSize=8;endSize=8;" edge="1" parent="1" source="i0Iv2Q9IE5e70W4y3djE-27" target="i0Iv2Q9IE5e70W4y3djE-30">
          <mxGeometry relative="1" as="geometry" />
        </mxCell>
        <mxCell id="i0Iv2Q9IE5e70W4y3djE-27" value="专用账户 借款币种转出" style="whiteSpace=wrap;html=1;fontSize=16;rounded=1;" vertex="1" parent="1">
          <mxGeometry x="-310" y="1824" width="120" height="60" as="geometry" />
        </mxCell>
        <mxCell id="i0Iv2Q9IE5e70W4y3djE-29" value="是" style="text;html=1;align=center;verticalAlign=middle;resizable=0;points=[];autosize=1;strokeColor=none;fillColor=none;fontSize=16;" vertex="1" parent="1">
          <mxGeometry x="-259" y="1723" width="34" height="31" as="geometry" />
        </mxCell>
        <mxCell id="i0Iv2Q9IE5e70W4y3djE-33" value="" style="edgeStyle=none;curved=1;rounded=0;orthogonalLoop=1;jettySize=auto;html=1;fontSize=12;startSize=8;endSize=8;" edge="1" parent="1" source="i0Iv2Q9IE5e70W4y3djE-30" target="i0Iv2Q9IE5e70W4y3djE-32">
          <mxGeometry relative="1" as="geometry" />
        </mxCell>
        <mxCell id="i0Iv2Q9IE5e70W4y3djE-30" value="专用账户 质押币种转入" style="whiteSpace=wrap;html=1;fontSize=16;rounded=1;" vertex="1" parent="1">
          <mxGeometry x="-310" y="2004" width="120" height="60" as="geometry" />
        </mxCell>
        <mxCell id="i0Iv2Q9IE5e70W4y3djE-35" value="" style="edgeStyle=none;curved=1;rounded=0;orthogonalLoop=1;jettySize=auto;html=1;fontSize=12;startSize=8;endSize=8;" edge="1" parent="1" source="i0Iv2Q9IE5e70W4y3djE-32" target="i0Iv2Q9IE5e70W4y3djE-34">
          <mxGeometry relative="1" as="geometry" />
        </mxCell>
        <mxCell id="i0Iv2Q9IE5e70W4y3djE-32" value="用户借款金额转入" style="whiteSpace=wrap;html=1;fontSize=16;rounded=1;" vertex="1" parent="1">
          <mxGeometry x="-310" y="2184" width="120" height="60" as="geometry" />
        </mxCell>
        <mxCell id="i0Iv2Q9IE5e70W4y3djE-37" value="" style="edgeStyle=none;curved=1;rounded=0;orthogonalLoop=1;jettySize=auto;html=1;fontSize=12;startSize=8;endSize=8;" edge="1" parent="1" source="i0Iv2Q9IE5e70W4y3djE-34" target="i0Iv2Q9IE5e70W4y3djE-36">
          <mxGeometry relative="1" as="geometry" />
        </mxCell>
        <mxCell id="i0Iv2Q9IE5e70W4y3djE-34" value="修改pledge_swap状态 已付款" style="whiteSpace=wrap;html=1;fontSize=16;rounded=1;" vertex="1" parent="1">
          <mxGeometry x="-310" y="2364" width="120" height="60" as="geometry" />
        </mxCell>
        <mxCell id="i0Iv2Q9IE5e70W4y3djE-39" value="" style="edgeStyle=none;curved=1;rounded=0;orthogonalLoop=1;jettySize=auto;html=1;fontSize=12;startSize=8;endSize=8;" edge="1" parent="1" source="i0Iv2Q9IE5e70W4y3djE-36" target="i0Iv2Q9IE5e70W4y3djE-38">
          <mxGeometry relative="1" as="geometry" />
        </mxCell>
        <mxCell id="i0Iv2Q9IE5e70W4y3djE-36" value="保存订单历史小时利率" style="whiteSpace=wrap;html=1;fontSize=16;rounded=1;" vertex="1" parent="1">
          <mxGeometry x="-310" y="2544" width="120" height="60" as="geometry" />
        </mxCell>
        <mxCell id="i0Iv2Q9IE5e70W4y3djE-43" value="" style="edgeStyle=none;curved=1;rounded=0;orthogonalLoop=1;jettySize=auto;html=1;fontSize=12;startSize=8;endSize=8;" edge="1" parent="1" source="i0Iv2Q9IE5e70W4y3djE-38" target="i0Iv2Q9IE5e70W4y3djE-42">
          <mxGeometry relative="1" as="geometry" />
        </mxCell>
        <mxCell id="i0Iv2Q9IE5e70W4y3djE-38" value="订单收息修改" style="whiteSpace=wrap;html=1;fontSize=16;rounded=1;" vertex="1" parent="1">
          <mxGeometry x="-310" y="2724" width="120" height="60" as="geometry" />
        </mxCell>
        <mxCell id="i0Iv2Q9IE5e70W4y3djE-45" value="" style="edgeStyle=none;curved=1;rounded=0;orthogonalLoop=1;jettySize=auto;html=1;fontSize=12;startSize=8;endSize=8;" edge="1" parent="1" source="i0Iv2Q9IE5e70W4y3djE-42" target="i0Iv2Q9IE5e70W4y3djE-44">
          <mxGeometry relative="1" as="geometry" />
        </mxCell>
        <mxCell id="i0Iv2Q9IE5e70W4y3djE-42" value="修改订单借币数量" style="whiteSpace=wrap;html=1;fontSize=16;rounded=1;" vertex="1" parent="1">
          <mxGeometry x="-310" y="2904" width="120" height="60" as="geometry" />
        </mxCell>
        <mxCell id="i0Iv2Q9IE5e70W4y3djE-47" value="" style="edgeStyle=none;curved=1;rounded=0;orthogonalLoop=1;jettySize=auto;html=1;fontSize=12;startSize=8;endSize=8;" edge="1" parent="1" source="i0Iv2Q9IE5e70W4y3djE-44" target="i0Iv2Q9IE5e70W4y3djE-46">
          <mxGeometry relative="1" as="geometry" />
        </mxCell>
        <mxCell id="i0Iv2Q9IE5e70W4y3djE-44" value="修改pledge_asset贷款数量" style="whiteSpace=wrap;html=1;fontSize=16;rounded=1;" vertex="1" parent="1">
          <mxGeometry x="-310" y="3084" width="120" height="60" as="geometry" />
        </mxCell>
        <mxCell id="i0Iv2Q9IE5e70W4y3djE-46" value="结束" style="whiteSpace=wrap;html=1;fontSize=16;rounded=1;" vertex="1" parent="1">
          <mxGeometry x="-310" y="3264" width="120" height="60" as="geometry" />
        </mxCell>
        <mxCell id="i0Iv2Q9IE5e70W4y3djE-50" value="" style="edgeStyle=none;curved=1;rounded=0;orthogonalLoop=1;jettySize=auto;html=1;fontSize=12;startSize=8;endSize=8;" edge="1" parent="1" source="i0Iv2Q9IE5e70W4y3djE-48" target="i0Iv2Q9IE5e70W4y3djE-49">
          <mxGeometry relative="1" as="geometry" />
        </mxCell>
        <mxCell id="i0Iv2Q9IE5e70W4y3djE-48" value="加减质押金" style="rounded=1;whiteSpace=wrap;html=1;fontSize=16;" vertex="1" parent="1">
          <mxGeometry x="9" y="-179" width="120" height="60" as="geometry" />
        </mxCell>
        <mxCell id="i0Iv2Q9IE5e70W4y3djE-52" value="" style="edgeStyle=none;curved=1;rounded=0;orthogonalLoop=1;jettySize=auto;html=1;fontSize=12;startSize=8;endSize=8;" edge="1" parent="1" source="i0Iv2Q9IE5e70W4y3djE-49" target="i0Iv2Q9IE5e70W4y3djE-51">
          <mxGeometry relative="1" as="geometry" />
        </mxCell>
        <mxCell id="i0Iv2Q9IE5e70W4y3djE-49" value="简单业务校验" style="whiteSpace=wrap;html=1;fontSize=16;rounded=1;" vertex="1" parent="1">
          <mxGeometry x="9" y="1" width="120" height="60" as="geometry" />
        </mxCell>
        <mxCell id="i0Iv2Q9IE5e70W4y3djE-54" value="" style="edgeStyle=none;curved=1;rounded=0;orthogonalLoop=1;jettySize=auto;html=1;fontSize=12;startSize=8;endSize=8;" edge="1" parent="1" source="i0Iv2Q9IE5e70W4y3djE-51" target="i0Iv2Q9IE5e70W4y3djE-53">
          <mxGeometry relative="1" as="geometry" />
        </mxCell>
        <mxCell id="i0Iv2Q9IE5e70W4y3djE-56" value="" style="edgeStyle=none;curved=1;rounded=0;orthogonalLoop=1;jettySize=auto;html=1;fontSize=12;startSize=8;endSize=8;" edge="1" parent="1" source="i0Iv2Q9IE5e70W4y3djE-51" target="i0Iv2Q9IE5e70W4y3djE-55">
          <mxGeometry relative="1" as="geometry" />
        </mxCell>
        <mxCell id="i0Iv2Q9IE5e70W4y3djE-51" value="质押金是否增加" style="rhombus;whiteSpace=wrap;html=1;fontSize=16;rounded=1;" vertex="1" parent="1">
          <mxGeometry x="29" y="171" width="80" height="80" as="geometry" />
        </mxCell>
        <mxCell id="i0Iv2Q9IE5e70W4y3djE-67" value="" style="edgeStyle=none;curved=1;rounded=0;orthogonalLoop=1;jettySize=auto;html=1;fontSize=12;startSize=8;endSize=8;" edge="1" parent="1" source="i0Iv2Q9IE5e70W4y3djE-53" target="i0Iv2Q9IE5e70W4y3djE-66">
          <mxGeometry relative="1" as="geometry" />
        </mxCell>
        <mxCell id="i0Iv2Q9IE5e70W4y3djE-53" value="判断最大提取量" style="whiteSpace=wrap;html=1;fontSize=16;rounded=1;" vertex="1" parent="1">
          <mxGeometry x="209" y="181" width="120" height="60" as="geometry" />
        </mxCell>
        <mxCell id="i0Iv2Q9IE5e70W4y3djE-59" value="" style="edgeStyle=none;curved=1;rounded=0;orthogonalLoop=1;jettySize=auto;html=1;fontSize=12;startSize=8;endSize=8;" edge="1" parent="1" source="i0Iv2Q9IE5e70W4y3djE-55" target="i0Iv2Q9IE5e70W4y3djE-58">
          <mxGeometry relative="1" as="geometry" />
        </mxCell>
        <mxCell id="i0Iv2Q9IE5e70W4y3djE-55" value="扣减用户资产&lt;br&gt;customer_asset" style="whiteSpace=wrap;html=1;fontSize=16;rounded=1;" vertex="1" parent="1">
          <mxGeometry x="9" y="381" width="120" height="60" as="geometry" />
        </mxCell>
        <mxCell id="i0Iv2Q9IE5e70W4y3djE-57" value="是" style="text;html=1;align=center;verticalAlign=middle;resizable=0;points=[];autosize=1;strokeColor=none;fillColor=none;fontSize=16;" vertex="1" parent="1">
          <mxGeometry x="33" y="311" width="34" height="31" as="geometry" />
        </mxCell>
        <mxCell id="i0Iv2Q9IE5e70W4y3djE-61" value="" style="edgeStyle=none;curved=1;rounded=0;orthogonalLoop=1;jettySize=auto;html=1;fontSize=12;startSize=8;endSize=8;" edge="1" parent="1" source="i0Iv2Q9IE5e70W4y3djE-58" target="i0Iv2Q9IE5e70W4y3djE-60">
          <mxGeometry relative="1" as="geometry" />
        </mxCell>
        <mxCell id="i0Iv2Q9IE5e70W4y3djE-58" value="专项账户增加资产" style="whiteSpace=wrap;html=1;fontSize=16;rounded=1;" vertex="1" parent="1">
          <mxGeometry x="9" y="561" width="120" height="60" as="geometry" />
        </mxCell>
        <mxCell id="i0Iv2Q9IE5e70W4y3djE-63" value="" style="edgeStyle=none;curved=1;rounded=0;orthogonalLoop=1;jettySize=auto;html=1;fontSize=12;startSize=8;endSize=8;" edge="1" parent="1" source="i0Iv2Q9IE5e70W4y3djE-60" target="i0Iv2Q9IE5e70W4y3djE-62">
          <mxGeometry relative="1" as="geometry" />
        </mxCell>
        <mxCell id="i0Iv2Q9IE5e70W4y3djE-60" value="更新质押数量和剩余质押数量，质押率&lt;br&gt;pledge_order" style="whiteSpace=wrap;html=1;fontSize=16;rounded=1;" vertex="1" parent="1">
          <mxGeometry x="9" y="741" width="120" height="60" as="geometry" />
        </mxCell>
        <mxCell id="i0Iv2Q9IE5e70W4y3djE-65" value="" style="edgeStyle=none;curved=1;rounded=0;orthogonalLoop=1;jettySize=auto;html=1;fontSize=12;startSize=8;endSize=8;" edge="1" parent="1" source="i0Iv2Q9IE5e70W4y3djE-62" target="i0Iv2Q9IE5e70W4y3djE-64">
          <mxGeometry relative="1" as="geometry" />
        </mxCell>
        <mxCell id="i0Iv2Q9IE5e70W4y3djE-62" value="更新质押资产&lt;br&gt;pledge_asset" style="whiteSpace=wrap;html=1;fontSize=16;rounded=1;" vertex="1" parent="1">
          <mxGeometry x="9" y="921" width="120" height="60" as="geometry" />
        </mxCell>
        <mxCell id="i0Iv2Q9IE5e70W4y3djE-64" value="结束" style="whiteSpace=wrap;html=1;fontSize=16;rounded=1;" vertex="1" parent="1">
          <mxGeometry x="9" y="1101" width="120" height="60" as="geometry" />
        </mxCell>
        <mxCell id="i0Iv2Q9IE5e70W4y3djE-69" value="" style="edgeStyle=none;curved=1;rounded=0;orthogonalLoop=1;jettySize=auto;html=1;fontSize=12;startSize=8;endSize=8;" edge="1" parent="1" source="i0Iv2Q9IE5e70W4y3djE-66" target="i0Iv2Q9IE5e70W4y3djE-68">
          <mxGeometry relative="1" as="geometry" />
        </mxCell>
        <mxCell id="i0Iv2Q9IE5e70W4y3djE-66" value="增加用户资产&lt;br style=&quot;border-color: var(--border-color);&quot;&gt;customer_asset" style="whiteSpace=wrap;html=1;fontSize=16;rounded=1;" vertex="1" parent="1">
          <mxGeometry x="209" y="361" width="120" height="60" as="geometry" />
        </mxCell>
        <mxCell id="i0Iv2Q9IE5e70W4y3djE-74" value="" style="edgeStyle=none;curved=1;rounded=0;orthogonalLoop=1;jettySize=auto;html=1;fontSize=12;startSize=8;endSize=8;" edge="1" parent="1" source="i0Iv2Q9IE5e70W4y3djE-68" target="i0Iv2Q9IE5e70W4y3djE-73">
          <mxGeometry relative="1" as="geometry" />
        </mxCell>
        <mxCell id="i0Iv2Q9IE5e70W4y3djE-68" value="专用账户资产减少&lt;br&gt;customer_asset" style="whiteSpace=wrap;html=1;fontSize=16;rounded=1;" vertex="1" parent="1">
          <mxGeometry x="209" y="541" width="120" height="60" as="geometry" />
        </mxCell>
        <mxCell id="i0Iv2Q9IE5e70W4y3djE-76" value="" style="edgeStyle=none;curved=1;rounded=0;orthogonalLoop=1;jettySize=auto;html=1;fontSize=12;startSize=8;endSize=8;" edge="1" parent="1" source="i0Iv2Q9IE5e70W4y3djE-73" target="i0Iv2Q9IE5e70W4y3djE-75">
          <mxGeometry relative="1" as="geometry" />
        </mxCell>
        <mxCell id="i0Iv2Q9IE5e70W4y3djE-73" value="更新质押数量和剩余质押数量，质押率&lt;br style=&quot;border-color: var(--border-color);&quot;&gt;pledge_order" style="whiteSpace=wrap;html=1;fontSize=16;rounded=1;" vertex="1" parent="1">
          <mxGeometry x="209" y="721" width="120" height="60" as="geometry" />
        </mxCell>
        <mxCell id="i0Iv2Q9IE5e70W4y3djE-78" value="" style="edgeStyle=none;curved=1;rounded=0;orthogonalLoop=1;jettySize=auto;html=1;fontSize=12;startSize=8;endSize=8;" edge="1" parent="1" source="i0Iv2Q9IE5e70W4y3djE-75" target="i0Iv2Q9IE5e70W4y3djE-77">
          <mxGeometry relative="1" as="geometry" />
        </mxCell>
        <mxCell id="i0Iv2Q9IE5e70W4y3djE-75" value="更新质押资产&lt;br style=&quot;border-color: var(--border-color);&quot;&gt;pledge_asset" style="whiteSpace=wrap;html=1;fontSize=16;rounded=1;" vertex="1" parent="1">
          <mxGeometry x="209" y="901" width="120" height="60" as="geometry" />
        </mxCell>
        <mxCell id="i0Iv2Q9IE5e70W4y3djE-77" value="结束" style="whiteSpace=wrap;html=1;fontSize=16;rounded=1;" vertex="1" parent="1">
          <mxGeometry x="209" y="1081" width="120" height="60" as="geometry" />
        </mxCell>
        <mxCell id="i0Iv2Q9IE5e70W4y3djE-81" value="" style="edgeStyle=none;curved=1;rounded=0;orthogonalLoop=1;jettySize=auto;html=1;fontSize=12;startSize=8;endSize=8;" edge="1" parent="1" source="i0Iv2Q9IE5e70W4y3djE-79" target="i0Iv2Q9IE5e70W4y3djE-80">
          <mxGeometry relative="1" as="geometry" />
        </mxCell>
        <mxCell id="i0Iv2Q9IE5e70W4y3djE-79" value="还款" style="rounded=1;whiteSpace=wrap;html=1;fontSize=16;" vertex="1" parent="1">
          <mxGeometry x="514" y="-179" width="120" height="60" as="geometry" />
        </mxCell>
        <mxCell id="i0Iv2Q9IE5e70W4y3djE-83" value="" style="edgeStyle=none;curved=1;rounded=0;orthogonalLoop=1;jettySize=auto;html=1;fontSize=12;startSize=8;endSize=8;" edge="1" parent="1" source="i0Iv2Q9IE5e70W4y3djE-80" target="i0Iv2Q9IE5e70W4y3djE-82">
          <mxGeometry relative="1" as="geometry" />
        </mxCell>
        <mxCell id="i0Iv2Q9IE5e70W4y3djE-80" value="简单业务检验" style="whiteSpace=wrap;html=1;fontSize=16;rounded=1;" vertex="1" parent="1">
          <mxGeometry x="514" y="1" width="120" height="60" as="geometry" />
        </mxCell>
        <mxCell id="i0Iv2Q9IE5e70W4y3djE-85" value="" style="edgeStyle=none;curved=1;rounded=0;orthogonalLoop=1;jettySize=auto;html=1;fontSize=12;startSize=8;endSize=8;" edge="1" parent="1" source="i0Iv2Q9IE5e70W4y3djE-82" target="i0Iv2Q9IE5e70W4y3djE-84">
          <mxGeometry relative="1" as="geometry" />
        </mxCell>
        <mxCell id="i0Iv2Q9IE5e70W4y3djE-82" value="计算要还的本金和利息" style="whiteSpace=wrap;html=1;fontSize=16;rounded=1;" vertex="1" parent="1">
          <mxGeometry x="514" y="181" width="120" height="60" as="geometry" />
        </mxCell>
        <mxCell id="i0Iv2Q9IE5e70W4y3djE-87" value="" style="edgeStyle=none;curved=1;rounded=0;orthogonalLoop=1;jettySize=auto;html=1;fontSize=12;startSize=8;endSize=8;" edge="1" parent="1" source="i0Iv2Q9IE5e70W4y3djE-84" target="i0Iv2Q9IE5e70W4y3djE-86">
          <mxGeometry relative="1" as="geometry" />
        </mxCell>
        <mxCell id="i0Iv2Q9IE5e70W4y3djE-84" value="pledge_swap保存还款" style="whiteSpace=wrap;html=1;fontSize=16;rounded=1;" vertex="1" parent="1">
          <mxGeometry x="514" y="361" width="120" height="60" as="geometry" />
        </mxCell>
        <mxCell id="i0Iv2Q9IE5e70W4y3djE-89" value="" style="edgeStyle=none;curved=1;rounded=0;orthogonalLoop=1;jettySize=auto;html=1;fontSize=12;startSize=8;endSize=8;" edge="1" parent="1" source="i0Iv2Q9IE5e70W4y3djE-86" target="i0Iv2Q9IE5e70W4y3djE-88">
          <mxGeometry relative="1" as="geometry" />
        </mxCell>
        <mxCell id="i0Iv2Q9IE5e70W4y3djE-86" value="更新剩余借贷、利息、负债&lt;br&gt;pledge_order" style="whiteSpace=wrap;html=1;fontSize=16;rounded=1;" vertex="1" parent="1">
          <mxGeometry x="514" y="541" width="120" height="60" as="geometry" />
        </mxCell>
        <mxCell id="i0Iv2Q9IE5e70W4y3djE-91" value="" style="edgeStyle=none;curved=1;rounded=0;orthogonalLoop=1;jettySize=auto;html=1;fontSize=12;startSize=8;endSize=8;" edge="1" parent="1" source="i0Iv2Q9IE5e70W4y3djE-88" target="i0Iv2Q9IE5e70W4y3djE-90">
          <mxGeometry relative="1" as="geometry" />
        </mxCell>
        <mxCell id="i0Iv2Q9IE5e70W4y3djE-88" value="用户资产扣除" style="whiteSpace=wrap;html=1;fontSize=16;rounded=1;" vertex="1" parent="1">
          <mxGeometry x="514" y="721" width="120" height="60" as="geometry" />
        </mxCell>
        <mxCell id="i0Iv2Q9IE5e70W4y3djE-93" value="" style="edgeStyle=none;curved=1;rounded=0;orthogonalLoop=1;jettySize=auto;html=1;fontSize=12;startSize=8;endSize=8;" edge="1" parent="1" source="i0Iv2Q9IE5e70W4y3djE-90" target="i0Iv2Q9IE5e70W4y3djE-92">
          <mxGeometry relative="1" as="geometry" />
        </mxCell>
        <mxCell id="i0Iv2Q9IE5e70W4y3djE-90" value="专项资产增加" style="whiteSpace=wrap;html=1;fontSize=16;rounded=1;" vertex="1" parent="1">
          <mxGeometry x="514" y="901" width="120" height="60" as="geometry" />
        </mxCell>
        <mxCell id="i0Iv2Q9IE5e70W4y3djE-95" value="" style="edgeStyle=none;curved=1;rounded=0;orthogonalLoop=1;jettySize=auto;html=1;fontSize=12;startSize=8;endSize=8;" edge="1" parent="1" source="i0Iv2Q9IE5e70W4y3djE-92" target="i0Iv2Q9IE5e70W4y3djE-94">
          <mxGeometry relative="1" as="geometry" />
        </mxCell>
        <mxCell id="i0Iv2Q9IE5e70W4y3djE-92" value="用户利息资产出账" style="whiteSpace=wrap;html=1;fontSize=16;rounded=1;" vertex="1" parent="1">
          <mxGeometry x="514" y="1081" width="120" height="60" as="geometry" />
        </mxCell>
        <mxCell id="i0Iv2Q9IE5e70W4y3djE-97" value="" style="edgeStyle=none;curved=1;rounded=0;orthogonalLoop=1;jettySize=auto;html=1;fontSize=12;startSize=8;endSize=8;" edge="1" parent="1" source="i0Iv2Q9IE5e70W4y3djE-94" target="i0Iv2Q9IE5e70W4y3djE-96">
          <mxGeometry relative="1" as="geometry" />
        </mxCell>
        <mxCell id="i0Iv2Q9IE5e70W4y3djE-94" value="收入账户利息入账" style="whiteSpace=wrap;html=1;fontSize=16;rounded=1;" vertex="1" parent="1">
          <mxGeometry x="514" y="1261" width="120" height="60" as="geometry" />
        </mxCell>
        <mxCell id="i0Iv2Q9IE5e70W4y3djE-99" value="" style="edgeStyle=none;curved=1;rounded=0;orthogonalLoop=1;jettySize=auto;html=1;fontSize=12;startSize=8;endSize=8;" edge="1" parent="1" source="i0Iv2Q9IE5e70W4y3djE-96" target="i0Iv2Q9IE5e70W4y3djE-98">
          <mxGeometry relative="1" as="geometry" />
        </mxCell>
        <mxCell id="i0Iv2Q9IE5e70W4y3djE-96" value="借币资产-更新借款金额" style="whiteSpace=wrap;html=1;fontSize=16;rounded=1;" vertex="1" parent="1">
          <mxGeometry x="514" y="1441" width="120" height="60" as="geometry" />
        </mxCell>
        <mxCell id="i0Iv2Q9IE5e70W4y3djE-101" value="" style="edgeStyle=none;curved=1;rounded=0;orthogonalLoop=1;jettySize=auto;html=1;fontSize=12;startSize=8;endSize=8;" edge="1" parent="1" source="i0Iv2Q9IE5e70W4y3djE-98" target="i0Iv2Q9IE5e70W4y3djE-100">
          <mxGeometry relative="1" as="geometry" />
        </mxCell>
        <mxCell id="i0Iv2Q9IE5e70W4y3djE-98" value="发送mq" style="whiteSpace=wrap;html=1;fontSize=16;rounded=1;" vertex="1" parent="1">
          <mxGeometry x="514" y="1621" width="120" height="60" as="geometry" />
        </mxCell>
        <mxCell id="i0Iv2Q9IE5e70W4y3djE-103" value="" style="edgeStyle=none;curved=1;rounded=0;orthogonalLoop=1;jettySize=auto;html=1;fontSize=12;startSize=8;endSize=8;" edge="1" parent="1" source="i0Iv2Q9IE5e70W4y3djE-100" target="i0Iv2Q9IE5e70W4y3djE-102">
          <mxGeometry relative="1" as="geometry" />
        </mxCell>
        <mxCell id="i0Iv2Q9IE5e70W4y3djE-100" value="修改订单质押率和状态" style="whiteSpace=wrap;html=1;fontSize=16;rounded=1;" vertex="1" parent="1">
          <mxGeometry x="514" y="1801" width="120" height="60" as="geometry" />
        </mxCell>
        <mxCell id="i0Iv2Q9IE5e70W4y3djE-105" value="" style="edgeStyle=none;curved=1;rounded=0;orthogonalLoop=1;jettySize=auto;html=1;fontSize=12;startSize=8;endSize=8;" edge="1" parent="1" source="i0Iv2Q9IE5e70W4y3djE-102" target="i0Iv2Q9IE5e70W4y3djE-104">
          <mxGeometry relative="1" as="geometry" />
        </mxCell>
        <mxCell id="i0Iv2Q9IE5e70W4y3djE-102" value="还款完成退款押金" style="whiteSpace=wrap;html=1;fontSize=16;rounded=1;" vertex="1" parent="1">
          <mxGeometry x="514" y="1981" width="120" height="60" as="geometry" />
        </mxCell>
        <mxCell id="i0Iv2Q9IE5e70W4y3djE-107" value="" style="edgeStyle=none;curved=1;rounded=0;orthogonalLoop=1;jettySize=auto;html=1;fontSize=12;startSize=8;endSize=8;" edge="1" parent="1" source="i0Iv2Q9IE5e70W4y3djE-104" target="i0Iv2Q9IE5e70W4y3djE-106">
          <mxGeometry relative="1" as="geometry" />
        </mxCell>
        <mxCell id="i0Iv2Q9IE5e70W4y3djE-112" value="" style="edgeStyle=none;curved=1;rounded=0;orthogonalLoop=1;jettySize=auto;html=1;fontSize=12;startSize=8;endSize=8;" edge="1" parent="1" source="i0Iv2Q9IE5e70W4y3djE-104" target="i0Iv2Q9IE5e70W4y3djE-111">
          <mxGeometry relative="1" as="geometry" />
        </mxCell>
        <mxCell id="i0Iv2Q9IE5e70W4y3djE-104" value="专用账户余额是否足够" style="whiteSpace=wrap;html=1;fontSize=16;rounded=1;" vertex="1" parent="1">
          <mxGeometry x="514" y="2161" width="120" height="60" as="geometry" />
        </mxCell>
        <mxCell id="i0Iv2Q9IE5e70W4y3djE-110" value="" style="edgeStyle=none;curved=1;rounded=0;orthogonalLoop=1;jettySize=auto;html=1;fontSize=12;startSize=8;endSize=8;" edge="1" parent="1" source="i0Iv2Q9IE5e70W4y3djE-106" target="i0Iv2Q9IE5e70W4y3djE-109">
          <mxGeometry relative="1" as="geometry" />
        </mxCell>
        <mxCell id="i0Iv2Q9IE5e70W4y3djE-106" value="申请资金通知&lt;br&gt;更新pledge_swap资金不足" style="whiteSpace=wrap;html=1;fontSize=16;rounded=1;" vertex="1" parent="1">
          <mxGeometry x="754" y="2161" width="120" height="60" as="geometry" />
        </mxCell>
        <mxCell id="i0Iv2Q9IE5e70W4y3djE-108" value="否" style="text;html=1;align=center;verticalAlign=middle;resizable=0;points=[];autosize=1;strokeColor=none;fillColor=none;fontSize=16;" vertex="1" parent="1">
          <mxGeometry x="669" y="2165" width="34" height="31" as="geometry" />
        </mxCell>
        <mxCell id="i0Iv2Q9IE5e70W4y3djE-109" value="结束" style="whiteSpace=wrap;html=1;fontSize=16;rounded=1;" vertex="1" parent="1">
          <mxGeometry x="754" y="1981" width="120" height="60" as="geometry" />
        </mxCell>
        <mxCell id="i0Iv2Q9IE5e70W4y3djE-114" value="" style="edgeStyle=none;curved=1;rounded=0;orthogonalLoop=1;jettySize=auto;html=1;fontSize=12;startSize=8;endSize=8;" edge="1" parent="1" source="i0Iv2Q9IE5e70W4y3djE-111" target="i0Iv2Q9IE5e70W4y3djE-113">
          <mxGeometry relative="1" as="geometry" />
        </mxCell>
        <mxCell id="i0Iv2Q9IE5e70W4y3djE-111" value="专用账户扣除" style="whiteSpace=wrap;html=1;fontSize=16;rounded=1;" vertex="1" parent="1">
          <mxGeometry x="514" y="2341" width="120" height="60" as="geometry" />
        </mxCell>
        <mxCell id="i0Iv2Q9IE5e70W4y3djE-116" value="" style="edgeStyle=none;curved=1;rounded=0;orthogonalLoop=1;jettySize=auto;html=1;fontSize=12;startSize=8;endSize=8;" edge="1" parent="1" source="i0Iv2Q9IE5e70W4y3djE-113" target="i0Iv2Q9IE5e70W4y3djE-115">
          <mxGeometry relative="1" as="geometry" />
        </mxCell>
        <mxCell id="i0Iv2Q9IE5e70W4y3djE-113" value="用户转入" style="whiteSpace=wrap;html=1;fontSize=16;rounded=1;" vertex="1" parent="1">
          <mxGeometry x="514" y="2521" width="120" height="60" as="geometry" />
        </mxCell>
        <mxCell id="i0Iv2Q9IE5e70W4y3djE-118" value="" style="edgeStyle=none;curved=1;rounded=0;orthogonalLoop=1;jettySize=auto;html=1;fontSize=12;startSize=8;endSize=8;" edge="1" parent="1" source="i0Iv2Q9IE5e70W4y3djE-115" target="i0Iv2Q9IE5e70W4y3djE-117">
          <mxGeometry relative="1" as="geometry" />
        </mxCell>
        <mxCell id="i0Iv2Q9IE5e70W4y3djE-115" value="修改pledge_swap修改已付款" style="whiteSpace=wrap;html=1;fontSize=16;rounded=1;" vertex="1" parent="1">
          <mxGeometry x="514" y="2701" width="120" height="60" as="geometry" />
        </mxCell>
        <mxCell id="i0Iv2Q9IE5e70W4y3djE-120" value="" style="edgeStyle=none;curved=1;rounded=0;orthogonalLoop=1;jettySize=auto;html=1;fontSize=12;startSize=8;endSize=8;" edge="1" parent="1" source="i0Iv2Q9IE5e70W4y3djE-117" target="i0Iv2Q9IE5e70W4y3djE-119">
          <mxGeometry relative="1" as="geometry" />
        </mxCell>
        <mxCell id="i0Iv2Q9IE5e70W4y3djE-117" value="用户质押金变动&lt;br&gt;pledge_asset" style="whiteSpace=wrap;html=1;fontSize=16;rounded=1;" vertex="1" parent="1">
          <mxGeometry x="514" y="2881" width="120" height="60" as="geometry" />
        </mxCell>
        <mxCell id="i0Iv2Q9IE5e70W4y3djE-122" value="" style="edgeStyle=none;curved=1;rounded=0;orthogonalLoop=1;jettySize=auto;html=1;fontSize=12;startSize=8;endSize=8;" edge="1" parent="1" source="i0Iv2Q9IE5e70W4y3djE-119" target="i0Iv2Q9IE5e70W4y3djE-121">
          <mxGeometry relative="1" as="geometry" />
        </mxCell>
        <mxCell id="i0Iv2Q9IE5e70W4y3djE-119" value="订单完结" style="whiteSpace=wrap;html=1;fontSize=16;rounded=1;" vertex="1" parent="1">
          <mxGeometry x="514" y="3061" width="120" height="60" as="geometry" />
        </mxCell>
        <mxCell id="i0Iv2Q9IE5e70W4y3djE-124" value="" style="edgeStyle=none;curved=1;rounded=0;orthogonalLoop=1;jettySize=auto;html=1;fontSize=12;startSize=8;endSize=8;" edge="1" parent="1" source="i0Iv2Q9IE5e70W4y3djE-121" target="i0Iv2Q9IE5e70W4y3djE-123">
          <mxGeometry relative="1" as="geometry" />
        </mxCell>
        <mxCell id="i0Iv2Q9IE5e70W4y3djE-121" value="发送消息" style="whiteSpace=wrap;html=1;fontSize=16;rounded=1;" vertex="1" parent="1">
          <mxGeometry x="514" y="3241" width="120" height="60" as="geometry" />
        </mxCell>
        <mxCell id="i0Iv2Q9IE5e70W4y3djE-123" value="结束" style="whiteSpace=wrap;html=1;fontSize=16;rounded=1;" vertex="1" parent="1">
          <mxGeometry x="514" y="3421" width="120" height="60" as="geometry" />
        </mxCell>
        <mxCell id="i0Iv2Q9IE5e70W4y3djE-127" value="" style="edgeStyle=none;curved=1;rounded=0;orthogonalLoop=1;jettySize=auto;html=1;fontSize=12;startSize=8;endSize=8;" edge="1" parent="1" source="i0Iv2Q9IE5e70W4y3djE-125" target="i0Iv2Q9IE5e70W4y3djE-126">
          <mxGeometry relative="1" as="geometry" />
        </mxCell>
        <mxCell id="i0Iv2Q9IE5e70W4y3djE-125" value="借币-补偿" style="rounded=1;whiteSpace=wrap;html=1;fontSize=16;" vertex="1" parent="1">
          <mxGeometry x="-320" y="-623" width="120" height="60" as="geometry" />
        </mxCell>
        <mxCell id="i0Iv2Q9IE5e70W4y3djE-126" value="手动发借币的mq" style="whiteSpace=wrap;html=1;fontSize=16;rounded=1;" vertex="1" parent="1">
          <mxGeometry x="-320" y="-443" width="120" height="60" as="geometry" />
        </mxCell>
        <mxCell id="i0Iv2Q9IE5e70W4y3djE-130" value="" style="edgeStyle=none;curved=1;rounded=0;orthogonalLoop=1;jettySize=auto;html=1;fontSize=12;startSize=8;endSize=8;" edge="1" parent="1" source="i0Iv2Q9IE5e70W4y3djE-128" target="i0Iv2Q9IE5e70W4y3djE-129">
          <mxGeometry relative="1" as="geometry" />
        </mxCell>
        <mxCell id="i0Iv2Q9IE5e70W4y3djE-128" value="市价变动" style="rounded=1;whiteSpace=wrap;html=1;fontSize=16;" vertex="1" parent="1">
          <mxGeometry x="890" y="-185" width="120" height="60" as="geometry" />
        </mxCell>
        <mxCell id="i0Iv2Q9IE5e70W4y3djE-132" value="" style="edgeStyle=none;curved=1;rounded=0;orthogonalLoop=1;jettySize=auto;html=1;fontSize=12;startSize=8;endSize=8;" edge="1" parent="1" source="i0Iv2Q9IE5e70W4y3djE-129" target="i0Iv2Q9IE5e70W4y3djE-131">
          <mxGeometry relative="1" as="geometry" />
        </mxCell>
        <mxCell id="i0Iv2Q9IE5e70W4y3djE-129" value="市价job" style="whiteSpace=wrap;html=1;fontSize=16;rounded=1;" vertex="1" parent="1">
          <mxGeometry x="890" y="-5" width="120" height="60" as="geometry" />
        </mxCell>
        <mxCell id="i0Iv2Q9IE5e70W4y3djE-134" value="" style="edgeStyle=none;curved=1;rounded=0;orthogonalLoop=1;jettySize=auto;html=1;fontSize=12;startSize=8;endSize=8;" edge="1" parent="1" source="i0Iv2Q9IE5e70W4y3djE-131" target="i0Iv2Q9IE5e70W4y3djE-133">
          <mxGeometry relative="1" as="geometry" />
        </mxCell>
        <mxCell id="i0Iv2Q9IE5e70W4y3djE-131" value="查询所有收息订单" style="whiteSpace=wrap;html=1;fontSize=16;rounded=1;" vertex="1" parent="1">
          <mxGeometry x="890" y="175" width="120" height="60" as="geometry" />
        </mxCell>
        <mxCell id="i0Iv2Q9IE5e70W4y3djE-138" value="" style="edgeStyle=none;curved=1;rounded=0;orthogonalLoop=1;jettySize=auto;html=1;fontSize=12;startSize=8;endSize=8;" edge="1" parent="1" source="i0Iv2Q9IE5e70W4y3djE-133" target="i0Iv2Q9IE5e70W4y3djE-137">
          <mxGeometry relative="1" as="geometry" />
        </mxCell>
        <mxCell id="i0Iv2Q9IE5e70W4y3djE-133" value="计算质押率" style="whiteSpace=wrap;html=1;fontSize=16;rounded=1;" vertex="1" parent="1">
          <mxGeometry x="890" y="355" width="120" height="60" as="geometry" />
        </mxCell>
        <mxCell id="i0Iv2Q9IE5e70W4y3djE-140" value="" style="edgeStyle=none;curved=1;rounded=0;orthogonalLoop=1;jettySize=auto;html=1;fontSize=12;startSize=8;endSize=8;" edge="1" parent="1" source="i0Iv2Q9IE5e70W4y3djE-137" target="i0Iv2Q9IE5e70W4y3djE-139">
          <mxGeometry relative="1" as="geometry" />
        </mxCell>
        <mxCell id="i0Iv2Q9IE5e70W4y3djE-146" value="" style="edgeStyle=none;curved=1;rounded=0;orthogonalLoop=1;jettySize=auto;html=1;fontSize=12;startSize=8;endSize=8;" edge="1" parent="1" source="i0Iv2Q9IE5e70W4y3djE-137" target="i0Iv2Q9IE5e70W4y3djE-145">
          <mxGeometry relative="1" as="geometry" />
        </mxCell>
        <mxCell id="i0Iv2Q9IE5e70W4y3djE-137" value="质押率是否强平" style="rhombus;whiteSpace=wrap;html=1;fontSize=16;rounded=1;" vertex="1" parent="1">
          <mxGeometry x="910" y="525" width="80" height="80" as="geometry" />
        </mxCell>
        <mxCell id="i0Iv2Q9IE5e70W4y3djE-142" value="" style="edgeStyle=none;curved=1;rounded=0;orthogonalLoop=1;jettySize=auto;html=1;fontSize=12;startSize=8;endSize=8;" edge="1" parent="1" source="i0Iv2Q9IE5e70W4y3djE-139" target="i0Iv2Q9IE5e70W4y3djE-141">
          <mxGeometry relative="1" as="geometry" />
        </mxCell>
        <mxCell id="i0Iv2Q9IE5e70W4y3djE-139" value="大于强平率" style="whiteSpace=wrap;html=1;fontSize=16;rounded=1;" vertex="1" parent="1">
          <mxGeometry x="1090" y="535" width="120" height="60" as="geometry" />
        </mxCell>
        <mxCell id="i0Iv2Q9IE5e70W4y3djE-144" value="" style="edgeStyle=none;curved=1;rounded=0;orthogonalLoop=1;jettySize=auto;html=1;fontSize=12;startSize=8;endSize=8;" edge="1" parent="1" source="i0Iv2Q9IE5e70W4y3djE-141" target="i0Iv2Q9IE5e70W4y3djE-143">
          <mxGeometry relative="1" as="geometry" />
        </mxCell>
        <mxCell id="i0Iv2Q9IE5e70W4y3djE-141" value="修改订单状态" style="whiteSpace=wrap;html=1;fontSize=16;rounded=1;" vertex="1" parent="1">
          <mxGeometry x="1090" y="715" width="120" height="60" as="geometry" />
        </mxCell>
        <mxCell id="i0Iv2Q9IE5e70W4y3djE-159" value="" style="edgeStyle=none;curved=1;rounded=0;orthogonalLoop=1;jettySize=auto;html=1;fontSize=12;startSize=8;endSize=8;" edge="1" parent="1" source="i0Iv2Q9IE5e70W4y3djE-143" target="i0Iv2Q9IE5e70W4y3djE-158">
          <mxGeometry relative="1" as="geometry" />
        </mxCell>
        <mxCell id="i0Iv2Q9IE5e70W4y3djE-143" value="异步强平" style="whiteSpace=wrap;html=1;fontSize=16;rounded=1;fillColor=#f8cecc;strokeColor=#b85450;" vertex="1" parent="1">
          <mxGeometry x="1090" y="895" width="120" height="60" as="geometry" />
        </mxCell>
        <mxCell id="i0Iv2Q9IE5e70W4y3djE-148" value="" style="edgeStyle=none;curved=1;rounded=0;orthogonalLoop=1;jettySize=auto;html=1;fontSize=12;startSize=8;endSize=8;" edge="1" parent="1" source="i0Iv2Q9IE5e70W4y3djE-145" target="i0Iv2Q9IE5e70W4y3djE-147">
          <mxGeometry relative="1" as="geometry" />
        </mxCell>
        <mxCell id="i0Iv2Q9IE5e70W4y3djE-145" value="超过预警线" style="whiteSpace=wrap;html=1;fontSize=16;rounded=1;" vertex="1" parent="1">
          <mxGeometry x="890" y="735" width="120" height="60" as="geometry" />
        </mxCell>
        <mxCell id="i0Iv2Q9IE5e70W4y3djE-150" value="" style="edgeStyle=none;curved=1;rounded=0;orthogonalLoop=1;jettySize=auto;html=1;fontSize=12;startSize=8;endSize=8;" edge="1" parent="1" source="i0Iv2Q9IE5e70W4y3djE-147" target="i0Iv2Q9IE5e70W4y3djE-149">
          <mxGeometry relative="1" as="geometry" />
        </mxCell>
        <mxCell id="i0Iv2Q9IE5e70W4y3djE-147" value="增加风控记录&lt;br&gt;pledge_risk_warning" style="whiteSpace=wrap;html=1;fontSize=16;rounded=1;" vertex="1" parent="1">
          <mxGeometry x="890" y="915" width="120" height="60" as="geometry" />
        </mxCell>
        <mxCell id="i0Iv2Q9IE5e70W4y3djE-154" value="" style="edgeStyle=none;curved=1;rounded=0;orthogonalLoop=1;jettySize=auto;html=1;fontSize=12;startSize=8;endSize=8;" edge="1" parent="1" source="i0Iv2Q9IE5e70W4y3djE-149" target="i0Iv2Q9IE5e70W4y3djE-153">
          <mxGeometry relative="1" as="geometry" />
        </mxCell>
        <mxCell id="i0Iv2Q9IE5e70W4y3djE-149" value="异步发送邮件" style="whiteSpace=wrap;html=1;fontSize=16;rounded=1;" vertex="1" parent="1">
          <mxGeometry x="890" y="1095" width="120" height="60" as="geometry" />
        </mxCell>
        <mxCell id="i0Iv2Q9IE5e70W4y3djE-156" value="" style="edgeStyle=none;curved=1;rounded=0;orthogonalLoop=1;jettySize=auto;html=1;fontSize=12;startSize=8;endSize=8;" edge="1" parent="1" source="i0Iv2Q9IE5e70W4y3djE-153" target="i0Iv2Q9IE5e70W4y3djE-155">
          <mxGeometry relative="1" as="geometry" />
        </mxCell>
        <mxCell id="i0Iv2Q9IE5e70W4y3djE-153" value="修改订单质押率" style="whiteSpace=wrap;html=1;fontSize=16;rounded=1;" vertex="1" parent="1">
          <mxGeometry x="890" y="1275" width="120" height="60" as="geometry" />
        </mxCell>
        <mxCell id="i0Iv2Q9IE5e70W4y3djE-155" value="结束" style="whiteSpace=wrap;html=1;fontSize=16;rounded=1;" vertex="1" parent="1">
          <mxGeometry x="890" y="1455" width="120" height="60" as="geometry" />
        </mxCell>
        <mxCell id="i0Iv2Q9IE5e70W4y3djE-161" value="" style="edgeStyle=none;curved=1;rounded=0;orthogonalLoop=1;jettySize=auto;html=1;fontSize=12;startSize=8;endSize=8;" edge="1" parent="1" source="i0Iv2Q9IE5e70W4y3djE-158" target="i0Iv2Q9IE5e70W4y3djE-160">
          <mxGeometry relative="1" as="geometry" />
        </mxCell>
        <mxCell id="i0Iv2Q9IE5e70W4y3djE-158" value="修改订单状态是强平" style="whiteSpace=wrap;html=1;fontSize=16;rounded=1;" vertex="1" parent="1">
          <mxGeometry x="1090" y="1075" width="120" height="60" as="geometry" />
        </mxCell>
        <mxCell id="i0Iv2Q9IE5e70W4y3djE-163" value="" style="edgeStyle=none;curved=1;rounded=0;orthogonalLoop=1;jettySize=auto;html=1;fontSize=12;startSize=8;endSize=8;" edge="1" parent="1" source="i0Iv2Q9IE5e70W4y3djE-160" target="i0Iv2Q9IE5e70W4y3djE-162">
          <mxGeometry relative="1" as="geometry" />
        </mxCell>
        <mxCell id="i0Iv2Q9IE5e70W4y3djE-165" value="" style="edgeStyle=none;curved=1;rounded=0;orthogonalLoop=1;jettySize=auto;html=1;fontSize=12;startSize=8;endSize=8;" edge="1" parent="1" source="i0Iv2Q9IE5e70W4y3djE-160" target="i0Iv2Q9IE5e70W4y3djE-164">
          <mxGeometry relative="1" as="geometry" />
        </mxCell>
        <mxCell id="i0Iv2Q9IE5e70W4y3djE-160" value="质押出售" style="whiteSpace=wrap;html=1;fontSize=16;rounded=1;" vertex="1" parent="1">
          <mxGeometry x="1090" y="1255" width="120" height="60" as="geometry" />
        </mxCell>
        <mxCell id="i0Iv2Q9IE5e70W4y3djE-167" value="" style="edgeStyle=none;curved=1;rounded=0;orthogonalLoop=1;jettySize=auto;html=1;fontSize=12;startSize=8;endSize=8;" edge="1" parent="1" source="i0Iv2Q9IE5e70W4y3djE-162" target="i0Iv2Q9IE5e70W4y3djE-166">
          <mxGeometry relative="1" as="geometry" />
        </mxCell>
        <mxCell id="i0Iv2Q9IE5e70W4y3djE-162" value="专用账户下单购买" style="whiteSpace=wrap;html=1;fontSize=16;rounded=1;" vertex="1" parent="1">
          <mxGeometry x="1330" y="1255" width="120" height="60" as="geometry" />
        </mxCell>
        <mxCell id="i0Iv2Q9IE5e70W4y3djE-164" value="发送强平消息" style="whiteSpace=wrap;html=1;fontSize=16;rounded=1;" vertex="1" parent="1">
          <mxGeometry x="1090" y="1435" width="120" height="60" as="geometry" />
        </mxCell>
        <mxCell id="i0Iv2Q9IE5e70W4y3djE-166" value="风控记录表" style="whiteSpace=wrap;html=1;fontSize=16;rounded=1;" vertex="1" parent="1">
          <mxGeometry x="1330" y="1435" width="120" height="60" as="geometry" />
        </mxCell>
        <mxCell id="i0Iv2Q9IE5e70W4y3djE-172" value="" style="edgeStyle=none;curved=1;rounded=0;orthogonalLoop=1;jettySize=auto;html=1;fontSize=12;startSize=8;endSize=8;" edge="1" parent="1" source="i0Iv2Q9IE5e70W4y3djE-168" target="i0Iv2Q9IE5e70W4y3djE-171">
          <mxGeometry relative="1" as="geometry" />
        </mxCell>
        <mxCell id="i0Iv2Q9IE5e70W4y3djE-168" value="抛售job" style="rounded=1;whiteSpace=wrap;html=1;fontSize=16;fillColor=#f8cecc;strokeColor=#b85450;" vertex="1" parent="1">
          <mxGeometry x="1187" y="1578" width="120" height="60" as="geometry" />
        </mxCell>
        <mxCell id="i0Iv2Q9IE5e70W4y3djE-169" value="" style="endArrow=none;dashed=1;html=1;dashPattern=1 3;strokeWidth=2;rounded=0;fontSize=12;startSize=8;endSize=8;curved=1;exitX=0.567;exitY=-0.025;exitDx=0;exitDy=0;exitPerimeter=0;" edge="1" parent="1" source="i0Iv2Q9IE5e70W4y3djE-168" target="i0Iv2Q9IE5e70W4y3djE-166">
          <mxGeometry width="50" height="50" relative="1" as="geometry">
            <mxPoint x="1210" y="1660" as="sourcePoint" />
            <mxPoint x="1260" y="1610" as="targetPoint" />
          </mxGeometry>
        </mxCell>
        <mxCell id="i0Iv2Q9IE5e70W4y3djE-170" value="" style="endArrow=none;dashed=1;html=1;dashPattern=1 3;strokeWidth=2;rounded=0;fontSize=12;startSize=8;endSize=8;curved=1;entryX=0.5;entryY=1;entryDx=0;entryDy=0;exitX=0.5;exitY=0;exitDx=0;exitDy=0;" edge="1" parent="1" source="i0Iv2Q9IE5e70W4y3djE-168" target="i0Iv2Q9IE5e70W4y3djE-164">
          <mxGeometry width="50" height="50" relative="1" as="geometry">
            <mxPoint x="1210" y="1546" as="sourcePoint" />
            <mxPoint x="1260" y="1496" as="targetPoint" />
          </mxGeometry>
        </mxCell>
        <mxCell id="i0Iv2Q9IE5e70W4y3djE-174" value="" style="edgeStyle=none;curved=1;rounded=0;orthogonalLoop=1;jettySize=auto;html=1;fontSize=12;startSize=8;endSize=8;" edge="1" parent="1" source="i0Iv2Q9IE5e70W4y3djE-171" target="i0Iv2Q9IE5e70W4y3djE-173">
          <mxGeometry relative="1" as="geometry" />
        </mxCell>
        <mxCell id="i0Iv2Q9IE5e70W4y3djE-171" value="查询抛售的风控记录" style="whiteSpace=wrap;html=1;fontSize=16;rounded=1;" vertex="1" parent="1">
          <mxGeometry x="1187" y="1758" width="120" height="60" as="geometry" />
        </mxCell>
        <mxCell id="i0Iv2Q9IE5e70W4y3djE-176" value="" style="edgeStyle=none;curved=1;rounded=0;orthogonalLoop=1;jettySize=auto;html=1;fontSize=12;startSize=8;endSize=8;" edge="1" parent="1" source="i0Iv2Q9IE5e70W4y3djE-173" target="i0Iv2Q9IE5e70W4y3djE-175">
          <mxGeometry relative="1" as="geometry" />
        </mxCell>
        <mxCell id="i0Iv2Q9IE5e70W4y3djE-173" value="查询现货成交记录" style="whiteSpace=wrap;html=1;fontSize=16;rounded=1;" vertex="1" parent="1">
          <mxGeometry x="1187" y="1938" width="120" height="60" as="geometry" />
        </mxCell>
        <mxCell id="i0Iv2Q9IE5e70W4y3djE-178" value="" style="edgeStyle=none;curved=1;rounded=0;orthogonalLoop=1;jettySize=auto;html=1;fontSize=12;startSize=8;endSize=8;" edge="1" parent="1" source="i0Iv2Q9IE5e70W4y3djE-175" target="i0Iv2Q9IE5e70W4y3djE-177">
          <mxGeometry relative="1" as="geometry" />
        </mxCell>
        <mxCell id="i0Iv2Q9IE5e70W4y3djE-175" value="如果一级转售&lt;br&gt;二级转售" style="whiteSpace=wrap;html=1;fontSize=16;rounded=1;" vertex="1" parent="1">
          <mxGeometry x="1187" y="2118" width="120" height="60" as="geometry" />
        </mxCell>
        <mxCell id="i0Iv2Q9IE5e70W4y3djE-180" value="" style="edgeStyle=none;curved=1;rounded=0;orthogonalLoop=1;jettySize=auto;html=1;fontSize=12;startSize=8;endSize=8;" edge="1" parent="1" source="i0Iv2Q9IE5e70W4y3djE-177" target="i0Iv2Q9IE5e70W4y3djE-179">
          <mxGeometry relative="1" as="geometry" />
        </mxCell>
        <mxCell id="i0Iv2Q9IE5e70W4y3djE-177" value="否则风控结算" style="whiteSpace=wrap;html=1;fontSize=16;rounded=1;fillColor=#f8cecc;strokeColor=#b85450;" vertex="1" parent="1">
          <mxGeometry x="1187" y="2298" width="120" height="60" as="geometry" />
        </mxCell>
        <mxCell id="i0Iv2Q9IE5e70W4y3djE-182" value="" style="edgeStyle=none;curved=1;rounded=0;orthogonalLoop=1;jettySize=auto;html=1;fontSize=12;startSize=8;endSize=8;" edge="1" parent="1" source="i0Iv2Q9IE5e70W4y3djE-179" target="i0Iv2Q9IE5e70W4y3djE-181">
          <mxGeometry relative="1" as="geometry" />
        </mxCell>
        <mxCell id="i0Iv2Q9IE5e70W4y3djE-179" value="用户剩余资产&lt;br&gt;总负债=借款+利息+强平费" style="whiteSpace=wrap;html=1;fontSize=16;rounded=1;" vertex="1" parent="1">
          <mxGeometry x="1187" y="2478" width="120" height="60" as="geometry" />
        </mxCell>
        <mxCell id="i0Iv2Q9IE5e70W4y3djE-184" value="" style="edgeStyle=none;curved=1;rounded=0;orthogonalLoop=1;jettySize=auto;html=1;fontSize=12;startSize=8;endSize=8;" edge="1" parent="1" source="i0Iv2Q9IE5e70W4y3djE-181" target="i0Iv2Q9IE5e70W4y3djE-183">
          <mxGeometry relative="1" as="geometry" />
        </mxCell>
        <mxCell id="i0Iv2Q9IE5e70W4y3djE-187" value="" style="edgeStyle=none;curved=1;rounded=0;orthogonalLoop=1;jettySize=auto;html=1;fontSize=12;startSize=8;endSize=8;" edge="1" parent="1" source="i0Iv2Q9IE5e70W4y3djE-181" target="i0Iv2Q9IE5e70W4y3djE-186">
          <mxGeometry relative="1" as="geometry" />
        </mxCell>
        <mxCell id="i0Iv2Q9IE5e70W4y3djE-181" value="资金是否足够" style="rhombus;whiteSpace=wrap;html=1;fontSize=16;rounded=1;" vertex="1" parent="1">
          <mxGeometry x="1207" y="2648" width="80" height="80" as="geometry" />
        </mxCell>
        <mxCell id="i0Iv2Q9IE5e70W4y3djE-189" value="" style="edgeStyle=none;curved=1;rounded=0;orthogonalLoop=1;jettySize=auto;html=1;fontSize=12;startSize=8;endSize=8;" edge="1" parent="1" source="i0Iv2Q9IE5e70W4y3djE-183" target="i0Iv2Q9IE5e70W4y3djE-188">
          <mxGeometry relative="1" as="geometry" />
        </mxCell>
        <mxCell id="i0Iv2Q9IE5e70W4y3djE-183" value="冻结用户&lt;br&gt;保存或更新用户黑名单&lt;br&gt;" style="whiteSpace=wrap;html=1;fontSize=16;rounded=1;" vertex="1" parent="1">
          <mxGeometry x="1387" y="2658" width="120" height="60" as="geometry" />
        </mxCell>
        <mxCell id="i0Iv2Q9IE5e70W4y3djE-185" value="否" style="text;html=1;align=center;verticalAlign=middle;resizable=0;points=[];autosize=1;strokeColor=none;fillColor=none;fontSize=16;" vertex="1" parent="1">
          <mxGeometry x="1314" y="2649" width="34" height="31" as="geometry" />
        </mxCell>
        <mxCell id="i0Iv2Q9IE5e70W4y3djE-186" value="" style="whiteSpace=wrap;html=1;fontSize=16;rounded=1;" vertex="1" parent="1">
          <mxGeometry x="1187" y="2858" width="120" height="60" as="geometry" />
        </mxCell>
        <mxCell id="i0Iv2Q9IE5e70W4y3djE-191" value="" style="edgeStyle=none;curved=1;rounded=0;orthogonalLoop=1;jettySize=auto;html=1;fontSize=12;startSize=8;endSize=8;" edge="1" parent="1" source="i0Iv2Q9IE5e70W4y3djE-188" target="i0Iv2Q9IE5e70W4y3djE-190">
          <mxGeometry relative="1" as="geometry" />
        </mxCell>
        <mxCell id="i0Iv2Q9IE5e70W4y3djE-188" value="加入质押借币黑名单" style="whiteSpace=wrap;html=1;fontSize=16;rounded=1;" vertex="1" parent="1">
          <mxGeometry x="1387" y="2838" width="120" height="60" as="geometry" />
        </mxCell>
        <mxCell id="i0Iv2Q9IE5e70W4y3djE-193" value="" style="edgeStyle=none;curved=1;rounded=0;orthogonalLoop=1;jettySize=auto;html=1;fontSize=12;startSize=8;endSize=8;" edge="1" parent="1" source="i0Iv2Q9IE5e70W4y3djE-190" target="i0Iv2Q9IE5e70W4y3djE-192">
          <mxGeometry relative="1" as="geometry" />
        </mxCell>
        <mxCell id="i0Iv2Q9IE5e70W4y3djE-190" value="冻结风控记录" style="whiteSpace=wrap;html=1;fontSize=16;rounded=1;" vertex="1" parent="1">
          <mxGeometry x="1387" y="3018" width="120" height="60" as="geometry" />
        </mxCell>
        <mxCell id="i0Iv2Q9IE5e70W4y3djE-195" value="" style="edgeStyle=none;curved=1;rounded=0;orthogonalLoop=1;jettySize=auto;html=1;fontSize=12;startSize=8;endSize=8;" edge="1" parent="1" source="i0Iv2Q9IE5e70W4y3djE-192" target="i0Iv2Q9IE5e70W4y3djE-194">
          <mxGeometry relative="1" as="geometry" />
        </mxCell>
        <mxCell id="i0Iv2Q9IE5e70W4y3djE-192" value="强平费&lt;br&gt;专用账户出&lt;br&gt;收入账户入" style="whiteSpace=wrap;html=1;fontSize=16;rounded=1;" vertex="1" parent="1">
          <mxGeometry x="1387" y="3198" width="120" height="60" as="geometry" />
        </mxCell>
        <mxCell id="i0Iv2Q9IE5e70W4y3djE-197" value="" style="edgeStyle=none;curved=1;rounded=0;orthogonalLoop=1;jettySize=auto;html=1;fontSize=12;startSize=8;endSize=8;" edge="1" parent="1" source="i0Iv2Q9IE5e70W4y3djE-194" target="i0Iv2Q9IE5e70W4y3djE-196">
          <mxGeometry relative="1" as="geometry" />
        </mxCell>
        <mxCell id="i0Iv2Q9IE5e70W4y3djE-194" value="利息&lt;br&gt;专用账户出&lt;br&gt;收入账户入" style="whiteSpace=wrap;html=1;fontSize=16;rounded=1;" vertex="1" parent="1">
          <mxGeometry x="1387" y="3378" width="120" height="60" as="geometry" />
        </mxCell>
        <mxCell id="i0Iv2Q9IE5e70W4y3djE-199" value="" style="edgeStyle=none;curved=1;rounded=0;orthogonalLoop=1;jettySize=auto;html=1;fontSize=12;startSize=8;endSize=8;" edge="1" parent="1" source="i0Iv2Q9IE5e70W4y3djE-196" target="i0Iv2Q9IE5e70W4y3djE-198">
          <mxGeometry relative="1" as="geometry" />
        </mxCell>
        <mxCell id="i0Iv2Q9IE5e70W4y3djE-196" value="剩余资产&lt;br&gt;用户资产收&lt;br&gt;专用账户出" style="whiteSpace=wrap;html=1;fontSize=16;rounded=1;" vertex="1" parent="1">
          <mxGeometry x="1387" y="3558" width="120" height="60" as="geometry" />
        </mxCell>
        <mxCell id="i0Iv2Q9IE5e70W4y3djE-201" value="" style="edgeStyle=none;curved=1;rounded=0;orthogonalLoop=1;jettySize=auto;html=1;fontSize=12;startSize=8;endSize=8;" edge="1" parent="1" source="i0Iv2Q9IE5e70W4y3djE-198" target="i0Iv2Q9IE5e70W4y3djE-200">
          <mxGeometry relative="1" as="geometry" />
        </mxCell>
        <mxCell id="i0Iv2Q9IE5e70W4y3djE-198" value="借币资产更新" style="whiteSpace=wrap;html=1;fontSize=16;rounded=1;" vertex="1" parent="1">
          <mxGeometry x="1387" y="3738" width="120" height="60" as="geometry" />
        </mxCell>
        <mxCell id="i0Iv2Q9IE5e70W4y3djE-203" value="" style="edgeStyle=none;curved=1;rounded=0;orthogonalLoop=1;jettySize=auto;html=1;fontSize=12;startSize=8;endSize=8;" edge="1" parent="1" source="i0Iv2Q9IE5e70W4y3djE-200" target="i0Iv2Q9IE5e70W4y3djE-202">
          <mxGeometry relative="1" as="geometry" />
        </mxCell>
        <mxCell id="i0Iv2Q9IE5e70W4y3djE-200" value="修改订单" style="whiteSpace=wrap;html=1;fontSize=16;rounded=1;" vertex="1" parent="1">
          <mxGeometry x="1387" y="3918" width="120" height="60" as="geometry" />
        </mxCell>
        <mxCell id="i0Iv2Q9IE5e70W4y3djE-202" value="修改风控记录" style="whiteSpace=wrap;html=1;fontSize=16;rounded=1;" vertex="1" parent="1">
          <mxGeometry x="1387" y="4098" width="120" height="60" as="geometry" />
        </mxCell>
        <mxCell id="i0Iv2Q9IE5e70W4y3djE-206" value="" style="edgeStyle=none;curved=1;rounded=0;orthogonalLoop=1;jettySize=auto;html=1;fontSize=12;startSize=8;endSize=8;" edge="1" parent="1" source="i0Iv2Q9IE5e70W4y3djE-204" target="i0Iv2Q9IE5e70W4y3djE-205">
          <mxGeometry relative="1" as="geometry" />
        </mxCell>
        <mxCell id="i0Iv2Q9IE5e70W4y3djE-204" value="授信补偿任务" style="rounded=1;whiteSpace=wrap;html=1;fontSize=16;" vertex="1" parent="1">
          <mxGeometry x="1282" y="-197" width="120" height="60" as="geometry" />
        </mxCell>
        <mxCell id="i0Iv2Q9IE5e70W4y3djE-208" value="" style="edgeStyle=none;curved=1;rounded=0;orthogonalLoop=1;jettySize=auto;html=1;fontSize=12;startSize=8;endSize=8;" edge="1" parent="1" source="i0Iv2Q9IE5e70W4y3djE-205" target="i0Iv2Q9IE5e70W4y3djE-207">
          <mxGeometry relative="1" as="geometry" />
        </mxCell>
        <mxCell id="i0Iv2Q9IE5e70W4y3djE-205" value="查询已授权未读取数据" style="whiteSpace=wrap;html=1;fontSize=16;rounded=1;" vertex="1" parent="1">
          <mxGeometry x="1282" y="-17" width="120" height="60" as="geometry" />
        </mxCell>
        <mxCell id="i0Iv2Q9IE5e70W4y3djE-210" value="" style="edgeStyle=none;curved=1;rounded=0;orthogonalLoop=1;jettySize=auto;html=1;fontSize=12;startSize=8;endSize=8;" edge="1" parent="1" source="i0Iv2Q9IE5e70W4y3djE-207" target="i0Iv2Q9IE5e70W4y3djE-209">
          <mxGeometry relative="1" as="geometry" />
        </mxCell>
        <mxCell id="i0Iv2Q9IE5e70W4y3djE-207" value="mq方法&lt;br&gt;补偿" style="whiteSpace=wrap;html=1;fontSize=16;rounded=1;" vertex="1" parent="1">
          <mxGeometry x="1282" y="163" width="120" height="60" as="geometry" />
        </mxCell>
        <mxCell id="i0Iv2Q9IE5e70W4y3djE-212" value="" style="edgeStyle=none;curved=1;rounded=0;orthogonalLoop=1;jettySize=auto;html=1;fontSize=12;startSize=8;endSize=8;" edge="1" parent="1" source="i0Iv2Q9IE5e70W4y3djE-209" target="i0Iv2Q9IE5e70W4y3djE-211">
          <mxGeometry relative="1" as="geometry" />
        </mxCell>
        <mxCell id="i0Iv2Q9IE5e70W4y3djE-209" value="查询强平风控数据" style="whiteSpace=wrap;html=1;fontSize=16;rounded=1;" vertex="1" parent="1">
          <mxGeometry x="1282" y="343" width="120" height="60" as="geometry" />
        </mxCell>
        <mxCell id="i0Iv2Q9IE5e70W4y3djE-214" value="" style="edgeStyle=none;curved=1;rounded=0;orthogonalLoop=1;jettySize=auto;html=1;fontSize=12;startSize=8;endSize=8;" edge="1" parent="1" source="i0Iv2Q9IE5e70W4y3djE-211" target="i0Iv2Q9IE5e70W4y3djE-213">
          <mxGeometry relative="1" as="geometry" />
        </mxCell>
        <mxCell id="i0Iv2Q9IE5e70W4y3djE-211" value="强平售卖补偿" style="whiteSpace=wrap;html=1;fontSize=16;rounded=1;" vertex="1" parent="1">
          <mxGeometry x="1282" y="523" width="120" height="60" as="geometry" />
        </mxCell>
        <mxCell id="i0Iv2Q9IE5e70W4y3djE-213" value="修改授权状态" style="whiteSpace=wrap;html=1;fontSize=16;rounded=1;" vertex="1" parent="1">
          <mxGeometry x="1282" y="703" width="120" height="60" as="geometry" />
        </mxCell>
        <mxCell id="i0Iv2Q9IE5e70W4y3djE-217" value="" style="edgeStyle=none;curved=1;rounded=0;orthogonalLoop=1;jettySize=auto;html=1;fontSize=12;startSize=8;endSize=8;" edge="1" parent="1" source="i0Iv2Q9IE5e70W4y3djE-215" target="i0Iv2Q9IE5e70W4y3djE-216">
          <mxGeometry relative="1" as="geometry" />
        </mxCell>
        <mxCell id="i0Iv2Q9IE5e70W4y3djE-215" value="收息任务" style="rounded=1;whiteSpace=wrap;html=1;fontSize=16;" vertex="1" parent="1">
          <mxGeometry x="1597" y="-202" width="120" height="60" as="geometry" />
        </mxCell>
        <mxCell id="i0Iv2Q9IE5e70W4y3djE-219" value="" style="edgeStyle=none;curved=1;rounded=0;orthogonalLoop=1;jettySize=auto;html=1;fontSize=12;startSize=8;endSize=8;" edge="1" parent="1" source="i0Iv2Q9IE5e70W4y3djE-216" target="i0Iv2Q9IE5e70W4y3djE-218">
          <mxGeometry relative="1" as="geometry" />
        </mxCell>
        <mxCell id="i0Iv2Q9IE5e70W4y3djE-236" value="" style="edgeStyle=none;curved=1;rounded=0;orthogonalLoop=1;jettySize=auto;html=1;fontSize=12;startSize=8;endSize=8;" edge="1" parent="1" source="i0Iv2Q9IE5e70W4y3djE-216" target="i0Iv2Q9IE5e70W4y3djE-235">
          <mxGeometry relative="1" as="geometry" />
        </mxCell>
        <mxCell id="i0Iv2Q9IE5e70W4y3djE-216" value="计算利息" style="whiteSpace=wrap;html=1;fontSize=16;rounded=1;" vertex="1" parent="1">
          <mxGeometry x="1597" y="-22" width="120" height="60" as="geometry" />
        </mxCell>
        <mxCell id="i0Iv2Q9IE5e70W4y3djE-221" value="" style="edgeStyle=none;curved=1;rounded=0;orthogonalLoop=1;jettySize=auto;html=1;fontSize=12;startSize=8;endSize=8;" edge="1" parent="1" source="i0Iv2Q9IE5e70W4y3djE-218" target="i0Iv2Q9IE5e70W4y3djE-220">
          <mxGeometry relative="1" as="geometry" />
        </mxCell>
        <mxCell id="i0Iv2Q9IE5e70W4y3djE-218" value="订单小时率保存" style="whiteSpace=wrap;html=1;fontSize=16;rounded=1;" vertex="1" parent="1">
          <mxGeometry x="1597" y="158" width="120" height="60" as="geometry" />
        </mxCell>
        <mxCell id="i0Iv2Q9IE5e70W4y3djE-223" value="" style="edgeStyle=none;curved=1;rounded=0;orthogonalLoop=1;jettySize=auto;html=1;fontSize=12;startSize=8;endSize=8;" edge="1" parent="1" source="i0Iv2Q9IE5e70W4y3djE-220" target="i0Iv2Q9IE5e70W4y3djE-222">
          <mxGeometry relative="1" as="geometry" />
        </mxCell>
        <mxCell id="i0Iv2Q9IE5e70W4y3djE-220" value="更新质押资产" style="whiteSpace=wrap;html=1;fontSize=16;rounded=1;" vertex="1" parent="1">
          <mxGeometry x="1597" y="338" width="120" height="60" as="geometry" />
        </mxCell>
        <mxCell id="i0Iv2Q9IE5e70W4y3djE-222" value="续期发送消息" style="whiteSpace=wrap;html=1;fontSize=16;rounded=1;" vertex="1" parent="1">
          <mxGeometry x="1597" y="518" width="120" height="60" as="geometry" />
        </mxCell>
        <mxCell id="i0Iv2Q9IE5e70W4y3djE-229" value="" style="edgeStyle=none;curved=1;rounded=0;orthogonalLoop=1;jettySize=auto;html=1;fontSize=12;startSize=8;endSize=8;" edge="1" parent="1" target="i0Iv2Q9IE5e70W4y3djE-228">
          <mxGeometry relative="1" as="geometry">
            <mxPoint x="1897" y="48" as="sourcePoint" />
          </mxGeometry>
        </mxCell>
        <mxCell id="i0Iv2Q9IE5e70W4y3djE-230" value="" style="edgeStyle=none;curved=1;rounded=0;orthogonalLoop=1;jettySize=auto;html=1;fontSize=12;startSize=8;endSize=8;" edge="1" parent="1" target="i0Iv2Q9IE5e70W4y3djE-228">
          <mxGeometry relative="1" as="geometry">
            <mxPoint x="1897" y="48" as="sourcePoint" />
          </mxGeometry>
        </mxCell>
        <mxCell id="i0Iv2Q9IE5e70W4y3djE-232" value="" style="edgeStyle=none;curved=1;rounded=0;orthogonalLoop=1;jettySize=auto;html=1;fontSize=12;startSize=8;endSize=8;" edge="1" parent="1" source="i0Iv2Q9IE5e70W4y3djE-228" target="i0Iv2Q9IE5e70W4y3djE-231">
          <mxGeometry relative="1" as="geometry" />
        </mxCell>
        <mxCell id="i0Iv2Q9IE5e70W4y3djE-228" value="逾期强平" style="whiteSpace=wrap;html=1;fontSize=16;rounded=1;fillColor=#f8cecc;strokeColor=#b85450;" vertex="1" parent="1">
          <mxGeometry x="1837" y="171" width="120" height="60" as="geometry" />
        </mxCell>
        <mxCell id="i0Iv2Q9IE5e70W4y3djE-234" value="" style="edgeStyle=none;curved=1;rounded=0;orthogonalLoop=1;jettySize=auto;html=1;fontSize=12;startSize=8;endSize=8;" edge="1" parent="1" source="i0Iv2Q9IE5e70W4y3djE-231" target="i0Iv2Q9IE5e70W4y3djE-233">
          <mxGeometry relative="1" as="geometry" />
        </mxCell>
        <mxCell id="i0Iv2Q9IE5e70W4y3djE-238" value="" style="edgeStyle=none;curved=1;rounded=0;orthogonalLoop=1;jettySize=auto;html=1;fontSize=12;startSize=8;endSize=8;" edge="1" parent="1" source="i0Iv2Q9IE5e70W4y3djE-231" target="i0Iv2Q9IE5e70W4y3djE-237">
          <mxGeometry relative="1" as="geometry" />
        </mxCell>
        <mxCell id="i0Iv2Q9IE5e70W4y3djE-231" value="是否续期" style="rhombus;whiteSpace=wrap;html=1;fontSize=16;rounded=1;" vertex="1" parent="1">
          <mxGeometry x="1857" y="341" width="80" height="80" as="geometry" />
        </mxCell>
        <mxCell id="i0Iv2Q9IE5e70W4y3djE-233" value="重新计算利息" style="whiteSpace=wrap;html=1;fontSize=16;rounded=1;" vertex="1" parent="1">
          <mxGeometry x="1837" y="551" width="120" height="60" as="geometry" />
        </mxCell>
        <mxCell id="i0Iv2Q9IE5e70W4y3djE-235" value="到期" style="whiteSpace=wrap;html=1;fontSize=16;rounded=1;" vertex="1" parent="1">
          <mxGeometry x="1837" y="-22" width="120" height="60" as="geometry" />
        </mxCell>
        <mxCell id="i0Iv2Q9IE5e70W4y3djE-237" value="利息+滞纳金" style="whiteSpace=wrap;html=1;fontSize=16;rounded=1;" vertex="1" parent="1">
          <mxGeometry x="2037" y="351" width="120" height="60" as="geometry" />
        </mxCell>
        <mxCell id="i0Iv2Q9IE5e70W4y3djE-239" value="是" style="text;html=1;align=center;verticalAlign=middle;resizable=0;points=[];autosize=1;strokeColor=none;fillColor=none;fontSize=16;" vertex="1" parent="1">
          <mxGeometry x="1894" y="468" width="34" height="31" as="geometry" />
        </mxCell>
        <mxCell id="i0Iv2Q9IE5e70W4y3djE-240" value="否" style="text;html=1;align=center;verticalAlign=middle;resizable=0;points=[];autosize=1;strokeColor=none;fillColor=none;fontSize=16;" vertex="1" parent="1">
          <mxGeometry x="1959" y="340" width="34" height="31" as="geometry" />
        </mxCell>
      </root>
    </mxGraphModel>
  </diagram>
</mxfile>
